<?xml version="1.0" encoding="UTF-8"?>
<svg version="1.1" xmlns="http://www.w3.org/2000/svg" width="2031" height="2025">
<path d="M0 0 C1.10996338 0.00410889 2.21992676 0.00821777 3.36352539 0.01245117 C58.94410969 0.37024132 100.02487313 10.73799336 143.52294922 46.40893555 C147.56655237 49.72333995 151.65383598 52.95600571 155.8125 56.125 C161.42810336 60.40620256 166.90525315 64.8384281 172.37109375 69.30859375 C176.46857022 72.65106496 180.60729942 75.91905501 184.8125 79.125 C190.42810336 83.40620256 195.90525315 87.8384281 201.37109375 92.30859375 C206.49852595 96.49123998 211.71720938 100.52834204 216.98046875 104.5390625 C220.7604956 107.44642629 224.43860694 110.47544971 228.125 113.5 C233.42606198 117.84463237 238.80447863 122.04610876 244.3125 126.125 C250.49390781 130.70412881 256.4987532 135.46019472 262.44873047 140.33544922 C266.74290244 143.85365493 271.06685861 147.32723072 275.4375 150.75 C276.00887695 151.19754639 276.58025391 151.64509277 277.16894531 152.10620117 C278.88263067 153.44687078 280.59735091 154.78620362 282.3125 156.125 C290.41931567 162.45294869 298.45619248 168.8533129 306.42138672 175.35888672 C311.52991958 179.5190625 316.7293633 183.53686608 321.96875 187.53125 C325.81137061 190.48711201 329.55997212 193.55612564 333.3125 196.625 C338.11426754 200.55112763 342.94240957 204.42682896 347.875 208.1875 C353.19676119 212.24780668 358.43528354 216.40052771 363.65429688 220.59179688 C367.87626321 223.98065166 372.11559842 227.34582052 376.375 230.6875 C376.95000244 231.13875244 377.52500488 231.59000488 378.11743164 232.05493164 C380.9886367 234.30664366 383.86257211 236.55482535 386.73828125 238.80078125 C393.6973618 244.24324039 400.57902826 249.77038923 407.42138672 255.35888672 C412.52991958 259.5190625 417.7293633 263.53686608 422.96875 267.53125 C426.81137061 270.48711201 430.55997212 273.55612564 434.3125 276.625 C439.11426754 280.55112763 443.94240957 284.42682896 448.875 288.1875 C454.19676119 292.24780668 459.43528354 296.40052771 464.65429688 300.59179688 C468.87626321 303.98065166 473.11559842 307.34582052 477.375 310.6875 C477.95000244 311.13875244 478.52500488 311.59000488 479.11743164 312.05493164 C481.9886367 314.30664366 484.86257211 316.55482535 487.73828125 318.80078125 C494.6973618 324.24324039 501.57902826 329.77038923 508.42138672 335.35888672 C513.52991958 339.5190625 518.7293633 343.53686608 523.96875 347.53125 C527.81137061 350.48711201 531.55997212 353.55612564 535.3125 356.625 C540.11426754 360.55112763 544.94240957 364.42682896 549.875 368.1875 C555.19676119 372.24780668 560.43528354 376.40052771 565.65429688 380.59179688 C569.87626321 383.98065166 574.11559842 387.34582052 578.375 390.6875 C578.95000244 391.13875244 579.52500488 391.59000488 580.11743164 392.05493164 C582.9886367 394.30664366 585.86257211 396.55482535 588.73828125 398.80078125 C595.00323531 403.70038778 601.21497023 408.65642927 607.375 413.6875 C612.15642621 417.5917889 616.96673148 421.44375117 621.875 425.1875 C627.19676119 429.24780668 632.43528354 433.40052771 637.65429688 437.59179688 C641.87626222 440.98065087 646.11553637 444.34590059 650.375 447.6875 C651.23641602 448.36329102 651.23641602 448.36329102 652.11523438 449.05273438 C653.84724723 450.41067921 655.57976919 451.76797141 657.3125 453.125 C665.1425581 459.25729282 672.94519448 465.42055658 680.70458984 471.64208984 C684.91134676 475.01207149 689.13478526 478.3597215 693.375 481.6875 C693.95008301 482.13883301 694.52516602 482.59016602 695.11767578 483.05517578 C697.98883313 485.30676335 700.8626622 487.55489571 703.73828125 489.80078125 C710.78518501 495.31179574 717.76056618 500.90222564 724.68945312 506.56103516 C728.15145322 509.38471839 731.63346445 512.16716339 735.1875 514.875 C740.13620368 518.6989983 744.74678322 522.85451002 749.3125 527.125 C750.20066406 527.94742188 751.08882812 528.76984375 752.00390625 529.6171875 C771.71871156 548.51872204 783.79935194 572.52977458 792.01977539 598.27783203 C793.89158926 604.0760902 796.11399286 609.68199063 798.4375 615.3125 C808.03642214 638.85736491 809.7614522 661.89703248 809.69345093 687.10414124 C809.69525076 689.91258186 809.7015585 692.72100853 809.70763266 695.52944273 C809.71840203 701.60729922 809.71817985 707.68507559 809.71049118 713.76293564 C809.69908882 722.80124616 809.70497327 731.83948976 809.7141161 740.87779991 C809.72987339 757.02499166 809.72856016 773.17214769 809.71987936 789.31934279 C809.71232047 803.4497453 809.71036829 817.58013475 809.7139473 831.71053886 C809.71417645 832.64933638 809.71440561 833.58813389 809.71464171 834.55537981 C809.71557578 838.36664667 809.71653099 842.17791353 809.717521 845.98918038 C809.72668928 881.71072433 809.71839132 917.43224559 809.70223031 953.15378604 C809.6879933 984.86368527 809.68926936 1016.57354835 809.70361328 1048.28344727 C809.71969001 1083.9428818 809.72604012 1119.6022963 809.71677649 1155.26173395 C809.71581439 1159.0655816 809.71487587 1162.86942925 809.7139473 1166.6732769 C809.71359145 1168.07809471 809.71359145 1168.07809471 809.71322841 1169.51129268 C809.70982141 1183.63065777 809.71379669 1197.75000834 809.72138596 1211.86937141 C809.72997529 1227.92899103 809.72779454 1243.98856948 809.71154372 1260.04818399 C809.7027566 1269.02720359 809.70212832 1278.00613396 809.71348225 1286.98515118 C809.72023854 1292.99262159 809.71597043 1299.00002087 809.70296794 1305.0074808 C809.69587327 1308.42366147 809.69497829 1311.83952181 809.70418589 1315.2557186 C809.82013263 1361.8646048 795.61679936 1402.0991697 762.6875 1435.8125 C761.511875 1436.9571875 761.511875 1436.9571875 760.3125 1438.125 C759.65507812 1438.85009766 759.65507812 1438.85009766 758.984375 1439.58984375 C752.92058797 1446.097696 745.58888664 1451.07719547 738.3125 1456.125 C737.28125 1456.84042969 736.25 1457.55585937 735.1875 1458.29296875 C706.42407658 1477.05660824 673.50064965 1482.61965299 639.81302643 1482.50252342 C637.50451419 1482.50566005 635.19600344 1482.51010912 632.88749593 1482.51573652 C626.57554468 1482.52735379 620.2637322 1482.52046315 613.95178335 1482.51040266 C607.78380739 1482.50206 601.61584191 1482.51094278 595.44786804 1482.51783381 C582.69077777 1482.53158172 569.93372348 1482.53120931 557.17663002 1482.52299118 C544.2591663 1482.51472058 531.34172624 1482.51300988 518.42426109 1482.51920319 C517.6066181 1482.5195907 516.7889751 1482.51997822 515.94655505 1482.52037748 C512.6161054 1482.5219774 509.28565579 1482.52362354 505.9552062 1482.52532831 C474.97543792 1482.54117482 443.99568549 1482.54228193 413.01591492 1482.53388596 C411.64048964 1482.53351338 411.64048964 1482.53351338 410.237278 1482.53313327 C409.31885154 1482.53288448 408.40042509 1482.53263569 407.45416753 1482.53237936 C379.455227 1482.5248049 351.45629302 1482.52285792 323.45735168 1482.5264473 C321.58121777 1482.52667973 319.70508386 1482.5269112 317.82894995 1482.52714171 C310.28923337 1482.52807314 302.74951679 1482.52902914 295.20980022 1482.530021 C274.1341728 1482.5327718 253.05854536 1482.53448376 231.98291779 1482.53537941 C231.02324476 1482.53542035 230.06357173 1482.53546128 229.0748177 1482.53550346 C198.50302027 1482.53673099 167.93122512 1482.53335218 137.35942841 1482.52683067 C136.36810022 1482.52661993 135.37677204 1482.52640918 134.35540361 1482.52619205 C118.25765347 1482.52275735 102.15990337 1482.51909889 86.06215328 1482.51542152 C22.21965186 1482.50085292 -41.62283069 1482.50152912 -105.46533203 1482.51611328 C-121.5550308 1482.51977696 -137.64472958 1482.52341016 -153.73442841 1482.52683067 C-155.22055206 1482.52714769 -155.22055206 1482.52714769 -156.73669841 1482.52747111 C-187.27710517 1482.53394125 -217.81751036 1482.53668219 -248.35791779 1482.53537941 C-249.31688294 1482.53533866 -250.27584809 1482.5352979 -251.26387279 1482.53525592 C-272.31622476 1482.53431841 -293.36857657 1482.53241736 -314.42092838 1482.5296479 C-321.95383778 1482.52866051 -329.48674717 1482.52772126 -337.01965657 1482.52679577 C-338.89358717 1482.5265636 -340.76751777 1482.52632741 -342.64144837 1482.52608718 C-370.63172768 1482.52250879 -398.62199961 1482.5255511 -426.612278 1482.53313327 C-427.52922818 1482.53338166 -428.44617836 1482.53363004 -429.39091492 1482.53388596 C-430.76379433 1482.53425803 -430.76379433 1482.53425803 -432.16440867 1482.53463761 C-463.05620562 1482.54291819 -493.94798359 1482.53985644 -524.83977783 1482.52404372 C-528.15960556 1482.52238672 -531.47943332 1482.5207766 -534.79926109 1482.51920319 C-535.61398357 1482.51881257 -536.42870605 1482.51842195 -537.26811709 1482.51801949 C-550.14862868 1482.51211118 -563.02911658 1482.51621257 -575.90962603 1482.5245102 C-588.5865975 1482.5324622 -601.26352917 1482.529631 -613.94049561 1482.51546794 C-620.71665509 1482.5081854 -627.49271996 1482.50588551 -634.26887769 1482.51668589 C-640.44178346 1482.52642432 -646.61452105 1482.52219143 -652.78741472 1482.50714391 C-654.99836643 1482.50413984 -657.20933227 1482.50607443 -659.42027266 1482.51376172 C-676.9238942 1482.57026801 -694.52058631 1481.57452829 -711.375 1476.4375 C-712.23037354 1476.18403809 -713.08574707 1475.93057617 -713.96704102 1475.66943359 C-738.73773855 1468.03887778 -759.47421885 1454.24643596 -778.6875 1437.125 C-779.36683594 1436.52042969 -780.04617188 1435.91585938 -780.74609375 1435.29296875 C-809.60732482 1407.95439256 -825.47210143 1366.56076543 -826.78073159 1327.33006147 C-826.81700823 1324.36968124 -826.82400688 1321.4107668 -826.81892776 1318.45016861 C-826.8209804 1317.32159854 -826.82303303 1316.19302847 -826.82514787 1315.03025931 C-826.83079206 1311.25716127 -826.82936381 1307.48410003 -826.82794189 1303.71099854 C-826.82997874 1300.97490335 -826.83350204 1298.23881051 -826.8369453 1295.50271678 C-826.84450044 1288.77706852 -826.84671709 1282.05142821 -826.84727435 1275.32577616 C-826.84819046 1267.26601073 -826.85486536 1259.20625258 -826.86162117 1251.1464903 C-826.87765869 1231.66854356 -826.88358205 1212.19059761 -826.88836992 1192.71264545 C-826.89070828 1183.4919971 -826.89431121 1174.27134938 -826.8980653 1165.05070152 C-826.91089927 1133.46631339 -826.92161822 1101.88192561 -826.9250679 1070.29753494 C-826.92528953 1068.31592967 -826.92551132 1066.33432439 -826.92573325 1064.35271911 C-826.92595389 1062.36642038 -826.92617437 1060.38012164 -826.9263947 1058.39382291 C-826.92683724 1054.40919574 -826.92728436 1050.42456857 -826.92773438 1046.43994141 C-826.92784377 1045.45199022 -826.92795316 1044.46403904 -826.92806586 1043.44614994 C-826.93169482 1011.4267147 -826.94760958 979.40730211 -826.97092474 947.38787555 C-826.99554925 913.50810808 -827.00924197 879.62835355 -827.01043582 845.74857688 C-827.01060726 842.02568038 -827.01082269 838.30278389 -827.01107025 834.57988739 C-827.01112602 833.66325455 -827.01118179 832.74662172 -827.01123925 831.80221213 C-827.01238745 817.083441 -827.02338982 802.36469322 -827.03795731 787.64592997 C-827.05236038 772.83660353 -827.05553786 758.02730687 -827.04751733 743.21797535 C-827.04307889 734.43333749 -827.04684968 725.64879608 -827.06275584 716.86417099 C-827.07257101 710.97961315 -827.07126588 705.09512221 -827.06131961 699.21056486 C-827.05597412 695.86853669 -827.05676665 692.52684069 -827.06782833 689.18480518 C-827.17282465 655.29365602 -820.84892208 627.26044683 -807.6875 596.125 C-807.32333984 595.25617187 -806.95917969 594.38734375 -806.58398438 593.4921875 C-793.33532456 562.05468962 -773.35417246 537.84779637 -745.8515625 517.8984375 C-740.56559163 514.05720477 -735.37263105 510.10081015 -730.1875 506.125 C-722.80245147 500.47139378 -715.35781456 494.91065034 -707.85375977 489.41625977 C-701.88791389 485.03717394 -695.99868241 480.56422739 -690.125 476.0625 C-682.9985338 470.60304344 -675.79558763 465.27785679 -668.49365234 460.05615234 C-661.75151342 455.21529957 -655.16149729 450.18536289 -648.57421875 445.13671875 C-642.8240304 440.7355482 -637.02996346 436.40279075 -631.1875 432.125 C-624.46243707 427.19947309 -617.80710721 422.19133549 -611.1875 417.125 C-600.67610202 409.0836937 -590.03118838 401.23439526 -579.35351562 393.41601562 C-569.33133116 386.07311189 -559.39024282 378.63764001 -549.52392578 371.08642578 C-543.02541947 366.12120759 -536.46117691 361.25385387 -529.86254883 356.42285156 C-523.80970487 351.98018898 -517.83502041 347.44121363 -511.875 342.875 C-505.67872915 338.12930122 -499.44685893 333.47041901 -493.06201172 328.98242188 C-486.84350595 324.58180048 -480.82383213 319.92152275 -474.77734375 315.2890625 C-468.95897162 310.83775775 -463.09842227 306.4525176 -457.1875 302.125 C-450.4624137 297.19950544 -443.80710653 292.19133497 -437.1875 287.125 C-426.67610202 279.0836937 -416.03118838 271.23439526 -405.35351562 263.41601562 C-395.33133116 256.07311189 -385.39024282 248.63764001 -375.52392578 241.08642578 C-369.02250665 236.11898204 -362.45513115 231.24971497 -355.85375977 226.41625977 C-349.88791389 222.03717394 -343.99868241 217.56422739 -338.125 213.0625 C-330.9985338 207.60304344 -323.79558763 202.27785679 -316.49365234 197.05615234 C-309.75151342 192.21529957 -303.16149729 187.18536289 -296.57421875 182.13671875 C-290.06108299 177.15159138 -283.48062683 172.26797281 -276.86279297 167.4230957 C-270.80993759 162.98025697 -264.83511129 158.44128325 -258.875 153.875 C-252.67872915 149.12930122 -246.44685893 144.47041901 -240.06201172 139.98242188 C-233.84350595 135.58180048 -227.82383213 130.92152275 -221.77734375 126.2890625 C-215.95897417 121.8377597 -210.09850037 117.45240848 -204.1875 113.125 C-197.43781236 108.18318871 -190.76457221 103.15122322 -184.125 98.0625 C-176.9985338 92.60304344 -169.79558763 87.27785679 -162.49365234 82.05615234 C-155.75151342 77.21529957 -149.16149729 72.18536289 -142.57421875 67.13671875 C-136.0614536 62.15187505 -129.48326576 57.26584449 -122.86279297 52.42529297 C-117.72005192 48.6542353 -112.64672182 44.80265716 -107.59667969 40.90844727 C-98.8713816 34.18915375 -90.19437655 27.70323578 -80.6875 22.125 C-79.75454102 21.57537598 -79.75454102 21.57537598 -78.80273438 21.01464844 C-54.57035369 6.93302267 -27.9780994 -0.12838982 0 0 Z " fill="#4CA9FE" transform="translate(1024.6875,302.875)"/>
<path d="M0 0 C4.04360315 3.3144044 8.13088676 6.54707017 12.28955078 9.71606445 C17.90515414 13.99726701 23.38230393 18.42949255 28.84814453 22.8996582 C32.94562101 26.24212942 37.08435021 29.51011946 41.28955078 32.71606445 C46.90515414 36.99726701 52.38230393 41.42949255 57.84814453 45.8996582 C62.97557673 50.08230443 68.19426016 54.11940649 73.45751953 58.13012695 C77.23754638 61.03749074 80.91565772 64.06651416 84.60205078 67.09106445 C89.90311276 71.43569683 95.28152941 75.63717321 100.78955078 79.71606445 C106.97095859 84.29519326 112.97580398 89.05125917 118.92578125 93.92651367 C123.21995322 97.44471939 127.54390939 100.91829518 131.91455078 104.34106445 C132.48592773 104.78861084 133.05730469 105.23615723 133.64599609 105.69726562 C135.35968145 107.03793524 137.07440169 108.37726807 138.78955078 109.71606445 C146.89636645 116.04401314 154.93324326 122.44437735 162.8984375 128.94995117 C168.00697036 133.11012695 173.20641408 137.12793053 178.44580078 141.12231445 C182.2884214 144.07817646 186.0370229 147.14719009 189.78955078 150.21606445 C194.59131832 154.14219208 199.41946035 158.01789342 204.35205078 161.77856445 C209.67381197 165.83887114 214.91233432 169.99159216 220.13134766 174.18286133 C224.35331399 177.57171611 228.5926492 180.93688497 232.85205078 184.27856445 C233.42705322 184.72981689 234.00205566 185.18106934 234.59448242 185.64599609 C237.46568749 187.89770811 240.33962289 190.14588981 243.21533203 192.3918457 C250.17441258 197.83430484 257.05607904 203.36145368 263.8984375 208.94995117 C269.00697036 213.11012695 274.20641408 217.12793053 279.44580078 221.12231445 C283.2884214 224.07817646 287.0370229 227.14719009 290.78955078 230.21606445 C295.59131832 234.14219208 300.41946035 238.01789342 305.35205078 241.77856445 C310.67381197 245.83887114 315.91233432 249.99159216 321.13134766 254.18286133 C325.35331399 257.57171611 329.5926492 260.93688497 333.85205078 264.27856445 C334.42705322 264.72981689 335.00205566 265.18106934 335.59448242 265.64599609 C338.46568749 267.89770811 341.33962289 270.14588981 344.21533203 272.3918457 C351.17441258 277.83430484 358.05607904 283.36145368 364.8984375 288.94995117 C370.00697036 293.11012695 375.20641408 297.12793053 380.44580078 301.12231445 C384.2884214 304.07817646 388.0370229 307.14719009 391.78955078 310.21606445 C396.59131832 314.14219208 401.41946035 318.01789342 406.35205078 321.77856445 C411.67381197 325.83887114 416.91233432 329.99159216 422.13134766 334.18286133 C426.35331399 337.57171611 430.5926492 340.93688497 434.85205078 344.27856445 C435.42705322 344.72981689 436.00205566 345.18106934 436.59448242 345.64599609 C439.46568749 347.89770811 442.33962289 350.14588981 445.21533203 352.3918457 C451.4802861 357.29145223 457.69202101 362.24749372 463.85205078 367.27856445 C468.63347699 371.18285336 473.44378226 375.03481562 478.35205078 378.77856445 C483.67381197 382.83887114 488.91233432 386.99159216 494.13134766 391.18286133 C498.35331301 394.57171532 502.59258716 397.93696504 506.85205078 401.27856445 C507.42632813 401.7290918 508.00060547 402.17961914 508.59228516 402.64379883 C510.32429801 404.00174367 512.05681997 405.35903587 513.78955078 406.71606445 C521.61960888 412.84835727 529.42224526 419.01162103 537.18164062 425.2331543 C541.38839754 428.60313594 545.61183604 431.95078595 549.85205078 435.27856445 C550.42713379 435.72989746 551.0022168 436.18123047 551.59472656 436.64624023 C554.46588391 438.89782781 557.33971298 441.14596017 560.21533203 443.3918457 C567.26223579 448.9028602 574.23761696 454.49329009 581.16650391 460.15209961 C584.62850401 462.97578284 588.11051523 465.75822784 591.66455078 468.46606445 C596.61325446 472.29006275 601.223834 476.44557447 605.78955078 480.71606445 C606.67771484 481.53848633 607.56587891 482.3609082 608.48095703 483.20825195 C628.19576234 502.10978649 640.27640272 526.12083904 648.49682617 551.86889648 C650.36864004 557.66715465 652.59104364 563.27305508 654.91455078 568.90356445 C664.51347292 592.44842937 666.23850298 615.48809693 666.17050171 640.69520569 C666.17230154 643.50364631 666.17860928 646.31207298 666.18468344 649.12050718 C666.19545281 655.19836368 666.19523063 661.27614004 666.18754196 667.35400009 C666.17613961 676.39231061 666.18202405 685.43055422 666.19116688 694.46886437 C666.20692417 710.61605611 666.20561094 726.76321214 666.19693015 742.91040725 C666.18937125 757.04080975 666.18741907 771.1711992 666.19099808 785.30160332 C666.19122723 786.24040083 666.19145639 787.17919834 666.19169249 788.14644426 C666.19262656 791.95771113 666.19358177 795.76897799 666.19457178 799.58024484 C666.20374006 835.30178879 666.1954421 871.02331004 666.17928109 906.74485049 C666.16504408 938.45474972 666.16632014 970.1646128 666.18066406 1001.87451172 C666.19674079 1037.53394625 666.2030909 1073.19336075 666.19382727 1108.8527984 C666.19286518 1112.65664605 666.19192665 1116.4604937 666.19099808 1120.26434135 C666.19064223 1121.66915916 666.19064223 1121.66915916 666.19027919 1123.10235713 C666.18687219 1137.22172222 666.19084747 1151.34107279 666.19843674 1165.46043587 C666.20702608 1181.52005548 666.20484532 1197.57963393 666.18859451 1213.63924844 C666.17980738 1222.61826804 666.1791791 1231.59719841 666.19053303 1240.57621563 C666.19728932 1246.58368605 666.19302121 1252.59108533 666.18001872 1258.59854525 C666.17292405 1262.01472592 666.17202907 1265.43058626 666.18123667 1268.84678305 C666.29718341 1315.45566926 652.09385014 1355.69023415 619.16455078 1389.40356445 C618.38080078 1390.16668945 617.59705078 1390.92981445 616.78955078 1391.71606445 C616.35126953 1392.19946289 615.91298828 1392.68286133 615.46142578 1393.1809082 C609.39763875 1399.68876045 602.06593742 1404.66825992 594.78955078 1409.71606445 C593.75830078 1410.43149414 592.72705078 1411.14692383 591.66455078 1411.8840332 C560.74442147 1432.05458631 526.2050948 1436.22734018 490.20047522 1436.05317783 C486.38366938 1436.0378021 482.56686213 1436.03930742 478.75003052 1436.03851318 C472.32370131 1436.03484362 465.89748031 1436.02002089 459.47119141 1435.99731445 C452.97280848 1435.97439142 446.47449703 1435.96012194 439.97607422 1435.95629883 C439.18109299 1435.95582912 438.38611177 1435.95535941 437.56704021 1435.95487547 C436.77384985 1435.95441615 435.9806595 1435.95395682 435.16343307 1435.95348358 C407.33248439 1435.93735179 379.49835183 1435.89656574 351.67236328 1435.32543945 C350.40993616 1435.30307095 350.40993616 1435.30307095 349.12200546 1435.28025055 C335.58229213 1435.02834476 322.27734634 1434.04552554 309.16455078 1430.40356445 C308.35808105 1430.18265137 307.55161133 1429.96173828 306.72070312 1429.73413086 C282.85634811 1423.04296766 261.15631695 1410.84922329 243.11767578 1393.8918457 C241.30386764 1392.19672635 239.48725368 1390.6235991 237.53955078 1389.09106445 C211.82426993 1366.88241281 194.92254955 1328.1067037 191.78955078 1294.71606445 C191.66398744 1291.64305252 191.66952532 1288.57600257 191.68719864 1285.50081921 C191.68825118 1284.60173433 191.68930371 1283.70264946 191.69038814 1282.77631959 C191.69509632 1279.76590353 191.70700669 1276.75555893 191.71881104 1273.74516296 C191.72355405 1271.56407971 191.72781742 1269.38299537 191.73164248 1267.20191032 C191.74087224 1262.46088448 191.75321848 1257.71988046 191.76792717 1252.97886848 C191.79173253 1245.26479072 191.80842484 1237.5507075 191.82380676 1229.83660889 C191.82924278 1227.13704379 191.83471018 1224.43747875 191.84018183 1221.73791373 C191.84154926 1221.05959211 191.8429167 1220.38127049 191.84432557 1219.68239368 C191.85432355 1214.75987751 191.86528235 1209.83736398 191.87655783 1204.91485059 C191.92328929 1184.32163862 191.94831519 1163.72846794 191.96063232 1143.13520813 C191.96156168 1141.63104433 191.96249308 1140.12688054 191.9634265 1138.62271675 C191.97143597 1125.57885602 191.97821007 1112.53499467 191.98420664 1099.49113287 C191.98893671 1089.22862578 191.99446863 1078.96611941 192.00097656 1068.70361328 C192.00146447 1067.91654294 192.00195239 1067.12947259 192.00245508 1066.31855163 C192.01856482 1040.79132085 192.07435906 1015.26435475 192.14960023 989.73723596 C192.22675143 963.48377021 192.26107143 937.23057661 192.24261754 910.97699617 C192.24003729 907.26882683 192.23796063 903.56065737 192.23619843 899.85248756 C192.23583827 899.12271462 192.23547812 898.39294167 192.23510706 897.64105439 C192.23059976 885.90148838 192.27142003 874.16249769 192.32944867 862.42309237 C192.38684981 850.6233874 192.39608897 838.82444666 192.3593857 827.02465447 C192.34093694 820.63283614 192.34369796 814.24286036 192.40313911 807.8512516 C192.45711749 801.99825743 192.4510801 796.14848989 192.39751694 790.29552028 C192.38871826 788.17980316 192.40186594 786.06385569 192.4393082 783.9484516 C192.98371654 772.23447165 192.98371654 772.23447165 188.01308584 762.13319933 C185.37607328 759.69260864 182.55440708 757.69022121 179.50159797 755.80531225 C176.65191445 753.9922714 174.06188013 751.87327174 171.41455078 749.77856445 C170.33369172 748.95410878 169.25196672 748.13078353 168.16845703 747.30981445 C164.51690124 744.52318544 160.93247432 741.65570696 157.35205078 738.77856445 C152.51944613 734.89626061 147.6702504 731.03775085 142.78955078 727.21606445 C137.29521427 722.91254223 131.83928193 718.56316841 126.39501953 714.1965332 C122.21221657 710.84509481 118.00903724 707.5211701 113.78955078 704.21606445 C108.93266494 700.4116866 104.10232803 696.57608672 99.28955078 692.71606445 C94.45358159 688.8384295 89.60326748 684.98048599 84.72705078 681.15356445 C84.15196777 680.70223145 83.57688477 680.25089844 82.984375 679.78588867 C80.11321765 677.5343011 77.23938858 675.28616874 74.36376953 673.0402832 C67.40468898 667.59782407 60.52302252 662.07067523 53.68066406 656.48217773 C48.5721312 652.32200195 43.37268748 648.30419837 38.13330078 644.30981445 C34.29068017 641.35395244 30.54207866 638.28493881 26.78955078 635.21606445 C21.98778324 631.28993682 17.15964121 627.41423549 12.22705078 623.65356445 C6.90528959 619.59325777 1.66676724 615.44053675 -3.55224609 611.24926758 C-7.77421243 607.86041279 -12.01354764 604.49524394 -16.27294922 601.15356445 C-17.13545288 600.47668579 -17.13545288 600.47668579 -18.01538086 599.78613281 C-20.88658592 597.53442079 -23.76052133 595.2862391 -26.63623047 593.0402832 C-33.59531102 587.59782407 -40.47697748 582.07067523 -47.31933594 576.48217773 C-52.4278688 572.32200195 -57.62731252 568.30419837 -62.86669922 564.30981445 C-66.70931983 561.35395244 -70.45792134 558.28493881 -74.21044922 555.21606445 C-79.01221676 551.28993682 -83.84035879 547.41423549 -88.77294922 543.65356445 C-94.09552448 539.59263666 -99.33520323 535.43970616 -104.55444336 531.24707031 C-109.32592009 527.41629289 -114.12908399 523.6282268 -118.94726562 519.85644531 C-123.16516017 516.5498097 -127.34739083 513.20091707 -131.52294922 509.84106445 C-136.83600143 505.56943418 -142.21760136 501.3998437 -147.64794922 497.27856445 C-153.99874412 492.4559431 -160.22600212 487.50493886 -166.3972168 482.45507812 C-172.92799242 477.11362599 -179.55999704 471.90721741 -186.21044922 466.71606445 C-194.31726488 460.38811577 -202.3541417 453.98775155 -210.31933594 447.48217773 C-215.4278688 443.32200195 -220.62731252 439.30419837 -225.86669922 435.30981445 C-229.70931983 432.35395244 -233.45792134 429.28493881 -237.21044922 426.21606445 C-242.01221676 422.28993682 -246.84035879 418.41423549 -251.77294922 414.65356445 C-257.09471041 410.59325777 -262.33323276 406.44053675 -267.55224609 402.24926758 C-271.77421243 398.86041279 -276.01354764 395.49524394 -280.27294922 392.15356445 C-280.84795166 391.70231201 -281.4229541 391.25105957 -282.01538086 390.78613281 C-284.88658592 388.53442079 -287.76052133 386.2862391 -290.63623047 384.0402832 C-316.5214782 363.79965635 -316.5214782 363.79965635 -325.21044922 355.71606445 C-326.04576172 354.94520508 -326.88107422 354.1743457 -327.74169922 353.38012695 C-357.92607039 324.46756917 -372.52996393 283.04552773 -373.61328125 241.94067383 C-373.97084341 208.03773729 -363.6504992 173.34516968 -342.21044922 146.71606445 C-341.35849633 145.62623957 -340.50834926 144.53500146 -339.65966797 143.44262695 C-337.32998787 140.4514379 -334.9800198 137.4768719 -332.625 134.50561523 C-331.25036252 132.76655885 -329.88323256 131.02191822 -328.51904297 129.2746582 C-323.62728556 123.01278056 -318.67441615 116.80795735 -313.64794922 110.65356445 C-309.74366032 105.87213825 -305.89169805 101.06183297 -302.14794922 96.15356445 C-298.08764253 90.83180327 -293.93492151 85.59328091 -289.74365234 80.37426758 C-286.35479756 76.15230124 -282.9896287 71.91296604 -279.64794922 67.65356445 C-278.97107056 66.79106079 -278.97107056 66.79106079 -278.28051758 65.91113281 C-276.02880556 63.03992775 -273.78062386 60.16599234 -271.53466797 57.2902832 C-266.09510135 50.33490121 -260.57125292 43.45658692 -254.98535156 36.61816406 C-251.57476776 32.43041444 -248.2361243 28.19749402 -244.96044922 23.90356445 C-243.37884939 21.83972375 -241.79489681 19.77772299 -240.21044922 17.71606445 C-239.52080078 16.81758789 -238.83115234 15.91911133 -238.12060547 14.9934082 C-217.75733365 -10.75456492 -189.89254691 -30.15854332 -158.21044922 -39.28393555 C-156.41220703 -39.80793945 -156.41220703 -39.80793945 -154.57763672 -40.3425293 C-97.08934189 -56.31875871 -44.31394859 -36.34000491 0 0 Z " fill="#FE914D" transform="translate(1168.21044921875,349.283935546875)"/>
<path d="M0 0 C2.14908685 0.88082962 3.60520036 1.87832224 5.38378906 3.3684082 C6.33922607 4.15852295 6.33922607 4.15852295 7.31396484 4.96459961 C7.98927246 5.53355957 8.66458008 6.10251953 9.36035156 6.6887207 C10.80227015 7.88238367 12.24499274 9.07507603 13.68847656 10.2668457 C14.77225586 11.165 14.77225586 11.165 15.87792969 12.08129883 C18.9188032 14.58107158 22.00813886 17.01576655 25.11035156 19.4387207 C25.68003662 19.88465576 26.24972168 20.33059082 26.83666992 20.79003906 C27.98140129 21.68561252 29.1264999 22.58071679 30.27197266 23.4753418 C38.68089053 30.04383535 47.05268686 36.65596864 55.37744141 43.33081055 C59.58419832 46.70079219 63.80763683 50.0484422 68.04785156 53.3762207 C68.62293457 53.82755371 69.19801758 54.27888672 69.79052734 54.74389648 C72.66168469 56.99548406 75.53551376 59.24361642 78.41113281 61.48950195 C85.37021336 66.93196109 92.25187983 72.45910993 99.09423828 78.04760742 C104.20277114 82.2077832 109.40221486 86.22558678 114.64160156 90.2199707 C118.48422218 93.17583271 122.23282369 96.24484634 125.98535156 99.3137207 C130.7871191 103.23984833 135.61526113 107.11554967 140.54785156 110.8762207 C145.87042682 114.93714849 151.11010558 119.090079 156.3293457 123.28271484 C160.5274301 126.65314456 164.74655817 129.99465985 168.98535156 133.3137207 C173.84230897 137.11800609 178.67257549 140.95369937 183.48535156 144.8137207 C188.32132076 148.69135566 193.17163486 152.54929916 198.04785156 156.3762207 C198.62293457 156.82755371 199.19801758 157.27888672 199.79052734 157.74389648 C202.66168469 159.99548406 205.53551376 162.24361642 208.41113281 164.48950195 C215.37021336 169.93196109 222.25187983 175.45910993 229.09423828 181.04760742 C234.20277114 185.2077832 239.40221486 189.22558678 244.64160156 193.2199707 C249.18657285 196.71610246 253.60567955 200.36753733 258.04394531 203.99731445 C262.14142179 207.33978567 266.28015099 210.60777571 270.48535156 213.8137207 C275.39589515 217.55740245 280.20555476 221.40473019 284.98535156 225.3137207 C289.7871191 229.23984833 294.61526113 233.11554967 299.54785156 236.8762207 C304.86086273 240.92985144 310.09222121 245.07398624 315.30078125 249.26074219 C320.36547773 253.32894319 325.46777611 257.34715363 330.59448242 261.33691406 C332.83163131 263.08459412 334.97571546 264.8040846 336.98535156 266.8137207 C337.18333562 269.6656821 337.25402032 272.42066396 337.23868465 275.27391911 C337.24333056 276.60946545 337.24333056 276.60946545 337.24807033 277.97199252 C337.25610237 280.98896595 337.24976292 284.00574474 337.24363708 287.02272034 C337.24648878 289.19435137 337.25022516 291.36598138 337.25477558 293.53760952 C337.26480462 299.53172082 337.26237038 305.52577393 337.25804865 311.51988971 C337.25558147 317.9749165 337.26462936 324.42992764 337.27243042 330.88494873 C337.28481591 342.08137276 337.28960894 353.27778416 337.29031181 364.47421455 C337.29148945 380.68106277 337.30668203 396.88787696 337.32580698 413.09471285 C337.33470789 420.64377105 337.34297703 428.19282995 337.35112858 435.741889 C337.35194633 436.4977414 337.35276408 437.25359379 337.35360662 438.0323508 C337.37295847 456.03621246 337.38648898 474.04007756 337.39868164 492.04394531 C337.39921843 492.83192842 337.39975523 493.61991153 337.40030829 494.43177291 C337.41279298 512.80074652 337.42357313 531.16972055 337.43237305 549.53869629 C337.43544272 555.9017741 337.43853514 562.2648519 337.44165039 568.62792969 C337.44222311 569.80585036 337.44222311 569.80585036 337.4428074 571.00756741 C337.45157661 588.94960202 337.46275149 606.8916294 337.48278141 624.83365536 C337.48362407 625.58870305 337.48446674 626.34375074 337.48533494 627.12167866 C337.49382031 634.66203552 337.5028158 642.20239162 337.51252671 649.742747 C337.51728798 653.45329884 337.52190352 657.16385085 337.52641487 660.874403 C337.52730275 661.60465041 337.52819063 662.33489782 337.52910542 663.08727395 C337.54301325 674.8201658 337.5456795 686.5530345 337.54373521 698.28593335 C337.54193576 710.09299147 337.55085811 721.90000028 337.57004362 733.70704324 C337.58006866 740.09890862 337.58523824 746.49068078 337.57727623 752.88255119 C337.57006392 758.74248474 337.5767551 764.60223721 337.59416164 770.46214782 C337.59802358 772.57408271 337.59690659 774.68603431 337.59010475 776.79796178 C337.54262707 792.8194557 339.00325467 807.77210122 343.86035156 823.1262207 C344.25323364 824.39236206 344.25323364 824.39236206 344.65405273 825.68408203 C351.48501635 847.29714304 362.43287174 867.0816527 377.97753906 883.63012695 C379.98535156 885.8137207 379.98535156 885.8137207 382.02832031 888.3918457 C399.85381545 910.45134068 431.00434831 924.49400328 457.70556641 931.23510742 C459.13775638 931.59859963 460.56607046 931.9781232 461.98779297 932.38061523 C470.91840178 934.84509144 480.25398889 934.95593261 489.46582031 935.13012695 C490.40468582 935.15090805 491.34355133 935.17168915 492.31086731 935.19309998 C495.26479883 935.25768118 498.21880727 935.31704804 501.17285156 935.3762207 C503.1943434 935.41949324 505.2158279 935.46311006 507.23730469 935.50708008 C512.15324461 935.6132665 517.06926065 935.71478171 521.98535156 935.8137207 C521.98535156 936.1437207 521.98535156 936.4737207 521.98535156 936.8137207 C181.42535156 936.8137207 -159.13464844 936.8137207 -510.01464844 936.8137207 C-510.01464844 936.4837207 -510.01464844 936.1537207 -510.01464844 935.8137207 C-509.08906128 935.68694946 -509.08906128 935.68694946 -508.14477539 935.55761719 C-477.62928744 931.25143938 -449.36554729 921.12821358 -425.01464844 901.8137207 C-424.38204102 901.31195312 -423.74943359 900.81018555 -423.09765625 900.29321289 C-390.96397884 874.44330685 -369.98714153 835.13560777 -365.36641741 794.17984939 C-363.8454826 777.31379923 -364.60370419 760.15096677 -364.72970581 743.23949516 C-364.77207141 736.91723955 -364.79019755 730.59491027 -364.8106842 724.27255249 C-364.84612572 714.04871476 -364.89166167 703.82499279 -364.94557934 693.6012381 C-365.03617511 676.34503004 -365.08216453 659.08890591 -365.1133323 641.83249818 C-365.12004413 638.14855987 -365.1271686 634.46462236 -365.1342634 630.78068477 C-365.13711479 629.2962226 -365.1399653 627.81176042 -365.14281494 626.32729825 C-365.14423103 625.59035358 -365.14564712 624.85340892 -365.14710613 624.09413259 C-365.1513991 621.85323625 -365.15565116 619.61233982 -365.1599009 617.37144339 C-365.19194815 600.5662986 -365.23044065 583.76117246 -365.27441406 566.95605469 C-365.27640443 566.18913411 -365.27839479 565.42221354 -365.28044547 564.63205295 C-365.34544508 539.72429938 -365.458762 514.81700383 -365.59258476 489.90953506 C-365.73011734 464.24807024 -365.80758658 438.58704 -365.81401412 412.92519424 C-365.81497529 409.3004626 -365.81667916 405.67573169 -365.81886673 402.0510006 C-365.81928319 401.33775193 -365.81969966 400.62450326 -365.82012875 399.88964099 C-365.8286924 388.43301545 -365.90125178 376.9776542 -365.99882288 365.52147767 C-366.09565501 354.01147844 -366.12615841 342.50324868 -366.09345065 330.99278841 C-366.07777603 324.76176197 -366.09135039 318.53441819 -366.18388939 312.30397987 C-366.26808173 306.5949212 -366.26857748 300.89206631 -366.20374723 295.18281146 C-366.19494181 293.12332488 -366.2163606 291.06342936 -366.27178542 289.00466988 C-366.65040593 274.05228578 -366.65040593 274.05228578 -362.2279444 268.61839078 C-357.91988699 264.50158498 -353.15170722 261.21056758 -348.08601625 258.09747203 C-345.55235102 256.52720717 -343.19520147 254.76974798 -340.83886719 252.9465332 C-339.46151955 251.94178894 -338.08265224 250.93912403 -336.70214844 249.9387207 C-329.91101525 244.97596953 -323.19324476 239.92683883 -316.51464844 234.8137207 C-306.00339022 226.77223659 -295.3583323 218.92311265 -284.68066406 211.10473633 C-275.56101062 204.42308548 -266.49424943 197.68280218 -257.51464844 190.8137207 C-247.00302769 182.77269756 -236.3583441 174.9231213 -225.68066406 167.10473633 C-215.6584796 159.76183259 -205.71739125 152.32636071 -195.85107422 144.77514648 C-189.34883458 139.80707583 -182.78011419 134.93792472 -176.17871094 130.1027832 C-170.23793054 125.74094776 -164.36723927 121.29301799 -158.51464844 116.8137207 C-148.00325045 108.77241441 -137.35833682 100.92311596 -126.68066406 93.10473633 C-116.6584796 85.76183259 -106.71739125 78.32636071 -96.85107422 70.77514648 C-90.34965509 65.80770274 -83.78227959 60.93843567 -77.1809082 56.10498047 C-71.21506233 51.72589464 -65.32583084 47.25294809 -59.45214844 42.7512207 C-52.33361248 37.29783935 -45.13926095 31.97770044 -37.8449707 26.76245117 C-30.02685169 21.14966536 -22.39390725 15.29811086 -14.75683594 9.44262695 C-13.95858398 8.83563965 -13.16033203 8.22865234 -12.33789062 7.60327148 C-10.79543274 6.41514451 -9.26959129 5.20511203 -7.76171875 3.97338867 C-6.71516113 3.13445068 -6.71516113 3.13445068 -5.64746094 2.27856445 C-5.04047363 1.77832764 -4.43348633 1.27809082 -3.80810547 0.76269531 C-2.01464844 -0.1862793 -2.01464844 -0.1862793 0 0 Z " fill="#00BE63" transform="translate(1023.0146484375,848.186279296875)"/>
</svg>
